<svg width="495" height="91" viewBox="0 0 495 91" fill="none" xmlns="http://www.w3.org/2000/svg">
<path d="M0 29V28.6H1.16C1.74667 28.6 2.24 28.5067 2.64 28.32C3.04 28.1333 3.38667 27.8133 3.68 27.36C3.97333 26.9067 4.25333 26.28 4.52 25.48L13.24 0.439998H15.28L25.32 26.48C25.5333 27.0133 25.7467 27.44 25.96 27.76C26.1733 28.0533 26.4133 28.2667 26.68 28.4C26.9733 28.5333 27.3067 28.6 27.68 28.6H28.2V29H17.2V28.6H18.12C19.1333 28.6 19.8667 28.48 20.32 28.24C20.7733 28 21 27.5733 21 26.96C21 26.8 20.9867 26.64 20.96 26.48C20.9333 26.2933 20.8933 26.0933 20.84 25.88C20.8133 25.6667 20.7467 25.44 20.64 25.2L18.2 18.64H7.36L5.16 24.92C5.08 25.1333 5.01333 25.3467 4.96 25.56C4.90667 25.7733 4.86667 25.9733 4.84 26.16C4.81333 26.32 4.8 26.48 4.8 26.64C4.8 27.36 5.12 27.8667 5.76 28.16C6.4 28.4533 7.42667 28.6 8.84 28.6H9.76V29H0ZM7.48 18.24H18.04L15.12 10.44C14.7733 9.53333 14.4533 8.66667 14.16 7.84C13.8667 7.01333 13.5867 6.22667 13.32 5.48C13.08 4.70667 12.8533 3.96 12.64 3.24C12.4533 3.82666 12.28 4.37333 12.12 4.88C11.96 5.36 11.8 5.84 11.64 6.32C11.48 6.8 11.2933 7.32 11.08 7.88C10.8933 8.41333 10.68 9.04 10.44 9.76L7.48 18.24ZM29.7231 29V28.6H30.2431C30.9631 28.6 31.5631 28.4933 32.0431 28.28C32.5498 28.0667 32.9231 27.7467 33.1631 27.32C33.4031 26.8933 33.5231 26.36 33.5231 25.72V3.56C33.5231 2.94667 33.4031 2.44 33.1631 2.04C32.9231 1.64 32.5498 1.34667 32.0431 1.16C31.5631 0.946665 30.9631 0.839998 30.2431 0.839998H29.7231V0.439998H41.3631V0.839998H40.8431C40.1231 0.839998 39.5098 0.946665 39.0031 1.16C38.5231 1.37333 38.1631 1.69333 37.9231 2.12C37.6831 2.54667 37.5631 3.08 37.5631 3.72V28.6H44.9631C46.3765 28.6 47.4965 28.4 48.3231 28C49.1765 27.5733 49.8031 26.8533 50.2031 25.84C50.6031 24.8267 50.8565 23.4533 50.9631 21.72L51.0431 20.4H51.4431L51.1631 29H29.7231ZM54.8528 2.96C54.6928 2.42667 54.4928 2.01333 54.2528 1.72C54.0395 1.4 53.7461 1.17333 53.3728 1.04C53.0261 0.906664 52.5728 0.839998 52.0128 0.839998H51.4928V0.439998H62.4928V0.839998H61.5728C60.7461 0.839998 60.1328 0.959998 59.7328 1.2C59.3595 1.44 59.1728 1.85333 59.1728 2.44C59.1728 2.6 59.1861 2.77333 59.2128 2.96C59.2395 3.14666 59.2795 3.34666 59.3328 3.56C59.3861 3.77333 59.4395 4 59.4928 4.24L63.7728 18.32C64.0128 19.12 64.2395 19.9333 64.4528 20.76C64.6661 21.56 64.8661 22.3867 65.0528 23.24C65.2395 24.0667 65.4128 24.92 65.5728 25.8C65.7328 25.0267 65.9461 24.0933 66.2128 23C66.5061 21.88 66.8128 20.68 67.1328 19.4L71.8928 0.719999H73.5728L79.4128 18.04C79.7861 19.1333 80.1195 20.2 80.4128 21.24C80.7328 22.2533 81.0128 23.2 81.2528 24.08C81.4928 24.9333 81.6795 25.6667 81.8128 26.28C81.9728 25.6667 82.0928 25.1867 82.1728 24.84C82.2795 24.4667 82.3861 24.0533 82.4928 23.6C82.6261 23.1467 82.7995 22.5067 83.0128 21.68L87.4528 4.88C87.5861 4.42667 87.6795 4.02667 87.7328 3.68C87.7861 3.33333 87.8128 3.02667 87.8128 2.76C87.8128 2.04 87.5861 1.54667 87.1328 1.28C86.7061 0.986665 86.0261 0.839998 85.0928 0.839998H84.1728V0.439998H91.9328V0.839998H91.1728C90.6128 0.839998 90.1461 0.933331 89.7728 1.12C89.3995 1.30666 89.0795 1.62666 88.8128 2.08C88.5728 2.53333 88.3461 3.16 88.1328 3.96L81.4928 29H79.0928L71.1728 5.12L65.2528 29H62.7728L54.8528 2.96ZM90.1953 29V28.6H91.3553C91.942 28.6 92.4353 28.5067 92.8353 28.32C93.2353 28.1333 93.582 27.8133 93.8753 27.36C94.1686 26.9067 94.4486 26.28 94.7153 25.48L103.435 0.439998H105.475L115.515 26.48C115.729 27.0133 115.942 27.44 116.155 27.76C116.369 28.0533 116.609 28.2667 116.875 28.4C117.169 28.5333 117.502 28.6 117.875 28.6H118.395V29H107.395V28.6H108.315C109.329 28.6 110.062 28.48 110.515 28.24C110.969 28 111.195 27.5733 111.195 26.96C111.195 26.8 111.182 26.64 111.155 26.48C111.129 26.2933 111.089 26.0933 111.035 25.88C111.009 25.6667 110.942 25.44 110.835 25.2L108.395 18.64H97.5553L95.3553 24.92C95.2753 25.1333 95.2086 25.3467 95.1553 25.56C95.102 25.7733 95.062 25.9733 95.0353 26.16C95.0086 26.32 94.9953 26.48 94.9953 26.64C94.9953 27.36 95.3153 27.8667 95.9553 28.16C96.5953 28.4533 97.622 28.6 99.0353 28.6H99.9553V29H90.1953ZM97.6753 18.24H108.235L105.315 10.44C104.969 9.53333 104.649 8.66667 104.355 7.84C104.062 7.01333 103.782 6.22667 103.515 5.48C103.275 4.70667 103.049 3.96 102.835 3.24C102.649 3.82666 102.475 4.37333 102.315 4.88C102.155 5.36 101.995 5.84 101.835 6.32C101.675 6.8 101.489 7.32 101.275 7.88C101.089 8.41333 100.875 9.04 100.635 9.76L97.6753 18.24ZM121.946 29V28.6H122.866C123.586 28.6 124.186 28.4933 124.666 28.28C125.173 28.0667 125.546 27.7467 125.786 27.32C126.026 26.8933 126.146 26.36 126.146 25.72V16.48L119.026 2.96C118.759 2.42667 118.493 2.01333 118.226 1.72C117.959 1.4 117.666 1.17333 117.346 1.04C117.026 0.906664 116.639 0.839998 116.186 0.839998H115.386V0.439998H126.386V0.839998H125.026C124.413 0.839998 123.946 0.919998 123.626 1.08C123.333 1.24 123.186 1.52 123.186 1.92C123.186 2.18666 123.253 2.50666 123.386 2.88C123.519 3.25333 123.719 3.70666 123.986 4.24L127.426 10.88C127.719 11.4133 127.986 11.9333 128.226 12.44C128.466 12.92 128.693 13.3867 128.906 13.84C129.119 14.2667 129.319 14.68 129.506 15.08C129.693 15.4533 129.853 15.8 129.986 16.12C130.306 15.5067 130.693 14.7333 131.146 13.8C131.626 12.8667 132.133 11.8933 132.666 10.88L135.706 5C136.026 4.38667 136.266 3.85333 136.426 3.4C136.586 2.94667 136.666 2.56 136.666 2.24C136.666 1.70667 136.453 1.34667 136.026 1.16C135.599 0.946665 134.933 0.839998 134.026 0.839998H132.426V0.439998H140.986V0.839998H139.986C139.559 0.839998 139.173 0.933331 138.826 1.12C138.506 1.30666 138.173 1.62666 137.826 2.08C137.506 2.53333 137.133 3.16 136.706 3.96L130.186 16.56V25.72C130.186 26.36 130.306 26.8933 130.546 27.32C130.786 27.7467 131.146 28.0667 131.626 28.28C132.133 28.4933 132.746 28.6 133.466 28.6H134.386V29H121.946ZM150.125 29.4C148.818 29.4 147.645 29.2667 146.605 29C145.565 28.7067 144.671 28.32 143.925 27.84C143.205 27.3333 142.658 26.7467 142.285 26.08C141.911 25.4133 141.725 24.68 141.725 23.88C141.725 23.2667 141.831 22.76 142.045 22.36C142.285 21.9333 142.618 21.6133 143.045 21.4C143.471 21.1867 143.991 21.08 144.605 21.08C144.631 22.8133 144.845 24.28 145.245 25.48C145.671 26.6533 146.311 27.5333 147.165 28.12C148.018 28.7067 149.098 29 150.405 29C152.111 29 153.485 28.5067 154.525 27.52C155.591 26.5067 156.125 25.0267 156.125 23.08C156.125 21.88 155.898 20.9067 155.445 20.16C155.018 19.4133 154.311 18.7467 153.325 18.16C152.365 17.5467 151.098 16.88 149.525 16.16C148.698 15.76 147.845 15.3333 146.965 14.88C146.111 14.4 145.311 13.84 144.565 13.2C143.845 12.5333 143.258 11.7333 142.805 10.8C142.378 9.84 142.165 8.70667 142.165 7.4C142.165 5.8 142.511 4.45333 143.205 3.36C143.898 2.26667 144.871 1.44 146.125 0.88C147.405 0.319999 148.898 0.0399985 150.605 0.0399985C152.178 0.0399985 153.538 0.253332 154.685 0.68C155.858 1.10667 156.765 1.66667 157.405 2.36C158.071 3.05333 158.405 3.81333 158.405 4.64C158.405 5.41333 158.111 6.02667 157.525 6.48C156.938 6.90667 156.178 7.12 155.245 7.12C155.245 5.65333 155.085 4.42666 154.765 3.44C154.471 2.45333 153.978 1.70666 153.285 1.2C152.591 0.693331 151.685 0.439998 150.565 0.439998C149.551 0.439998 148.658 0.653332 147.885 1.08C147.111 1.48 146.511 2.09333 146.085 2.92C145.685 3.72 145.485 4.73333 145.485 5.96C145.485 7.26667 145.725 8.32 146.205 9.12C146.685 9.92 147.405 10.6133 148.365 11.2C149.351 11.76 150.578 12.3867 152.045 13.08C153.378 13.6933 154.605 14.3333 155.725 15C156.871 15.6667 157.791 16.5067 158.485 17.52C159.178 18.5333 159.525 19.8667 159.525 21.52C159.525 23.1467 159.151 24.5467 158.405 25.72C157.685 26.8933 156.618 27.8 155.205 28.44C153.818 29.08 152.125 29.4 150.125 29.4Z" fill="#1F1D36"/>
<path d="M181.051 29V28.6H181.571C182.291 28.6 182.891 28.4933 183.371 28.28C183.878 28.0667 184.251 27.7467 184.491 27.32C184.731 26.8933 184.851 26.36 184.851 25.72V3.56C184.851 2.94667 184.731 2.44 184.491 2.04C184.251 1.64 183.878 1.34667 183.371 1.16C182.891 0.946665 182.291 0.839998 181.571 0.839998H181.051V0.439998H201.211L201.451 7.44H201.051L200.971 6.12C200.891 4.78667 200.665 3.73333 200.291 2.96C199.918 2.18667 199.331 1.64 198.531 1.32C197.731 0.999998 196.651 0.839998 195.291 0.839998H188.891V14.76H198.931V15.16H188.891V25.72C188.891 26.36 189.011 26.8933 189.251 27.32C189.491 27.7467 189.851 28.0667 190.331 28.28C190.838 28.4933 191.451 28.6 192.171 28.6H192.691V29H181.051ZM204.645 29V28.6H205.165C205.885 28.6 206.485 28.4933 206.965 28.28C207.472 28.0667 207.845 27.7467 208.085 27.32C208.325 26.8933 208.445 26.36 208.445 25.72V3.56C208.445 2.94667 208.325 2.44 208.085 2.04C207.845 1.64 207.472 1.34667 206.965 1.16C206.485 0.946665 205.885 0.839998 205.165 0.839998H204.645V0.439998H215.405C217.725 0.439998 219.645 0.733332 221.165 1.32C222.685 1.88 223.818 2.72 224.565 3.84C225.312 4.96 225.685 6.32 225.685 7.92C225.685 9.46667 225.365 10.7467 224.725 11.76C224.112 12.7467 223.312 13.52 222.325 14.08C221.365 14.64 220.365 15.0667 219.325 15.36L224.965 24.16C225.525 25.0133 226.005 25.7333 226.405 26.32C226.832 26.88 227.218 27.3333 227.565 27.68C227.912 28 228.232 28.24 228.525 28.4C228.845 28.5333 229.165 28.6 229.485 28.6H229.605V29H229.045C227.792 29 226.752 28.96 225.925 28.88C225.125 28.7733 224.458 28.6 223.925 28.36C223.392 28.12 222.912 27.7733 222.485 27.32C222.085 26.84 221.645 26.2267 221.165 25.48L215.005 15.68H212.485V25.72C212.485 26.36 212.605 26.8933 212.845 27.32C213.085 27.7467 213.445 28.0667 213.925 28.28C214.432 28.4933 215.045 28.6 215.765 28.6H216.285V29H204.645ZM215.285 15.28C216.778 15.28 217.965 15.0533 218.845 14.6C219.752 14.12 220.405 13.36 220.805 12.32C221.205 11.28 221.405 9.90667 221.405 8.2C221.405 6.44 221.192 5.02667 220.765 3.96C220.365 2.86666 219.712 2.08 218.805 1.6C217.898 1.09333 216.698 0.839998 215.205 0.839998H212.485V15.28H215.285ZM230.895 29V28.6H231.415C232.135 28.6 232.735 28.4933 233.215 28.28C233.722 28.0667 234.095 27.7467 234.335 27.32C234.575 26.8933 234.695 26.36 234.695 25.72V3.56C234.695 2.94667 234.575 2.44 234.335 2.04C234.095 1.64 233.722 1.34667 233.215 1.16C232.735 0.946665 232.135 0.839998 231.415 0.839998H230.895V0.439998H251.015L251.255 7.44H250.855L250.775 6.12C250.695 4.78667 250.468 3.73333 250.095 2.96C249.722 2.18667 249.135 1.64 248.335 1.32C247.562 0.999998 246.495 0.839998 245.135 0.839998H238.735V13.84H248.775V14.24H238.735V28.6H246.135C247.575 28.6 248.722 28.44 249.575 28.12C250.428 27.8 251.042 27.2533 251.415 26.48C251.815 25.7067 252.055 24.6533 252.135 23.32L252.215 22H252.615L252.335 29H230.895ZM264.617 29.4C263.31 29.4 262.137 29.2667 261.097 29C260.057 28.7067 259.164 28.32 258.417 27.84C257.697 27.3333 257.15 26.7467 256.777 26.08C256.404 25.4133 256.217 24.68 256.217 23.88C256.217 23.2667 256.324 22.76 256.537 22.36C256.777 21.9333 257.11 21.6133 257.537 21.4C257.964 21.1867 258.484 21.08 259.097 21.08C259.124 22.8133 259.337 24.28 259.737 25.48C260.164 26.6533 260.804 27.5333 261.657 28.12C262.51 28.7067 263.59 29 264.897 29C266.604 29 267.977 28.5067 269.017 27.52C270.084 26.5067 270.617 25.0267 270.617 23.08C270.617 21.88 270.39 20.9067 269.937 20.16C269.51 19.4133 268.804 18.7467 267.817 18.16C266.857 17.5467 265.59 16.88 264.017 16.16C263.19 15.76 262.337 15.3333 261.457 14.88C260.604 14.4 259.804 13.84 259.057 13.2C258.337 12.5333 257.75 11.7333 257.297 10.8C256.87 9.84 256.657 8.70667 256.657 7.4C256.657 5.8 257.004 4.45333 257.697 3.36C258.39 2.26667 259.364 1.44 260.617 0.88C261.897 0.319999 263.39 0.0399985 265.097 0.0399985C266.67 0.0399985 268.03 0.253332 269.177 0.68C270.35 1.10667 271.257 1.66667 271.897 2.36C272.564 3.05333 272.897 3.81333 272.897 4.64C272.897 5.41333 272.604 6.02667 272.017 6.48C271.43 6.90667 270.67 7.12 269.737 7.12C269.737 5.65333 269.577 4.42666 269.257 3.44C268.964 2.45333 268.47 1.70666 267.777 1.2C267.084 0.693331 266.177 0.439998 265.057 0.439998C264.044 0.439998 263.15 0.653332 262.377 1.08C261.604 1.48 261.004 2.09333 260.577 2.92C260.177 3.72 259.977 4.73333 259.977 5.96C259.977 7.26667 260.217 8.32 260.697 9.12C261.177 9.92 261.897 10.6133 262.857 11.2C263.844 11.76 265.07 12.3867 266.537 13.08C267.87 13.6933 269.097 14.3333 270.217 15C271.364 15.6667 272.284 16.5067 272.977 17.52C273.67 18.5333 274.017 19.8667 274.017 21.52C274.017 23.1467 273.644 24.5467 272.897 25.72C272.177 26.8933 271.11 27.8 269.697 28.44C268.31 29.08 266.617 29.4 264.617 29.4ZM277.615 29V28.6H278.135C278.855 28.6 279.455 28.4933 279.935 28.28C280.441 28.0667 280.815 27.7467 281.055 27.32C281.295 26.8933 281.415 26.36 281.415 25.72V3.56C281.415 2.94667 281.295 2.44 281.055 2.04C280.815 1.64 280.441 1.34667 279.935 1.16C279.455 0.946665 278.855 0.839998 278.135 0.839998H277.615V0.439998H289.255V0.839998H288.735C288.015 0.839998 287.401 0.946665 286.895 1.16C286.415 1.37333 286.055 1.69333 285.815 2.12C285.575 2.54667 285.455 3.08 285.455 3.72V13.88H298.415V3.72C298.415 3.08 298.295 2.54667 298.055 2.12C297.815 1.69333 297.455 1.37333 296.975 1.16C296.495 0.946665 295.881 0.839998 295.135 0.839998H294.615V0.439998H306.255V0.839998H305.735C305.015 0.839998 304.415 0.946665 303.935 1.16C303.455 1.34667 303.081 1.64 302.815 2.04C302.575 2.44 302.455 2.94667 302.455 3.56V25.72C302.455 26.36 302.575 26.8933 302.815 27.32C303.081 27.7467 303.455 28.0667 303.935 28.28C304.415 28.4933 305.015 28.6 305.735 28.6H306.255V29H294.615V28.6H295.135C295.881 28.6 296.495 28.4933 296.975 28.28C297.455 28.0667 297.815 27.7467 298.055 27.32C298.295 26.8933 298.415 26.36 298.415 25.72V14.28H285.455V25.72C285.455 26.36 285.575 26.8933 285.815 27.32C286.055 27.7467 286.415 28.0667 286.895 28.28C287.401 28.4933 288.015 28.6 288.735 28.6H289.255V29H277.615Z" fill="#009245"/>
<path d="M93.52 81V80.6H94.04C94.76 80.6 95.36 80.4933 95.84 80.28C96.3467 80.0667 96.72 79.7467 96.96 79.32C97.2 78.8933 97.32 78.36 97.32 77.72V55.56C97.32 54.9467 97.2 54.44 96.96 54.04C96.72 53.64 96.3467 53.3467 95.84 53.16C95.36 52.9467 94.76 52.84 94.04 52.84H93.52V52.44H113.68L113.92 59.44H113.52L113.44 58.12C113.36 56.7867 113.133 55.7333 112.76 54.96C112.387 54.1867 111.8 53.64 111 53.32C110.2 53 109.12 52.84 107.76 52.84H101.36V66.76H111.4V67.16H101.36V77.72C101.36 78.36 101.48 78.8933 101.72 79.32C101.96 79.7467 102.32 80.0667 102.8 80.28C103.307 80.4933 103.92 80.6 104.64 80.6H105.16V81H93.52ZM117.114 81V80.6H117.634C118.354 80.6 118.954 80.4933 119.434 80.28C119.94 80.0667 120.314 79.7467 120.554 79.32C120.794 78.8933 120.914 78.36 120.914 77.72V55.56C120.914 54.9467 120.794 54.44 120.554 54.04C120.314 53.64 119.94 53.3467 119.434 53.16C118.954 52.9467 118.354 52.84 117.634 52.84H117.114V52.44H128.754V52.84H128.234C127.514 52.84 126.9 52.9467 126.394 53.16C125.914 53.3733 125.554 53.6933 125.314 54.12C125.074 54.5467 124.954 55.08 124.954 55.72V80.6H132.354C133.767 80.6 134.887 80.4 135.714 80C136.567 79.5733 137.194 78.8533 137.594 77.84C137.994 76.8267 138.247 75.4533 138.354 73.72L138.434 72.4H138.834L138.554 81H117.114ZM155.356 81.4C152.529 81.4 150.182 80.7867 148.316 79.56C146.449 78.3333 145.049 76.6133 144.116 74.4C143.209 72.1867 142.756 69.6 142.756 66.64C142.756 63.68 143.209 61.1067 144.116 58.92C145.049 56.7333 146.449 55.04 148.316 53.84C150.209 52.6133 152.569 52 155.396 52C158.089 52 160.356 52.6133 162.196 53.84C164.062 55.04 165.476 56.7467 166.436 58.96C167.422 61.1467 167.916 63.72 167.916 66.68C167.916 69.64 167.422 72.2267 166.436 74.44C165.476 76.6267 164.062 78.3333 162.196 79.56C160.329 80.7867 158.049 81.4 155.356 81.4ZM155.356 81C156.769 81 157.982 80.7333 158.996 80.2C160.036 79.64 160.876 78.7867 161.516 77.64C162.182 76.4667 162.676 74.9733 162.996 73.16C163.316 71.3467 163.476 69.1867 163.476 66.68C163.476 64.1733 163.316 62.0267 162.996 60.24C162.676 58.4267 162.182 56.9467 161.516 55.8C160.876 54.6267 160.049 53.7733 159.036 53.24C158.022 52.68 156.809 52.4 155.396 52.4C153.956 52.4 152.716 52.68 151.676 53.24C150.662 53.7733 149.822 54.6267 149.156 55.8C148.489 56.9467 147.996 58.4267 147.676 60.24C147.356 62.0267 147.196 64.1733 147.196 66.68C147.196 69.1867 147.356 71.3467 147.676 73.16C147.996 74.9733 148.476 76.4667 149.116 77.64C149.782 78.7867 150.622 79.64 151.636 80.2C152.676 80.7333 153.916 81 155.356 81ZM173.142 54.96C172.982 54.4267 172.782 54.0133 172.542 53.72C172.329 53.4 172.035 53.1733 171.662 53.04C171.315 52.9067 170.862 52.84 170.302 52.84H169.782V52.44H180.782V52.84H179.862C179.035 52.84 178.422 52.96 178.022 53.2C177.649 53.44 177.462 53.8533 177.462 54.44C177.462 54.6 177.475 54.7733 177.502 54.96C177.529 55.1467 177.569 55.3467 177.622 55.56C177.675 55.7733 177.729 56 177.782 56.24L182.062 70.32C182.302 71.12 182.529 71.9333 182.742 72.76C182.955 73.56 183.155 74.3867 183.342 75.24C183.529 76.0667 183.702 76.92 183.862 77.8C184.022 77.0267 184.235 76.0933 184.502 75C184.795 73.88 185.102 72.68 185.422 71.4L190.182 52.72H191.862L197.702 70.04C198.075 71.1333 198.409 72.2 198.702 73.24C199.022 74.2533 199.302 75.2 199.542 76.08C199.782 76.9333 199.969 77.6667 200.102 78.28C200.262 77.6667 200.382 77.1867 200.462 76.84C200.569 76.4667 200.675 76.0533 200.782 75.6C200.915 75.1467 201.089 74.5067 201.302 73.68L205.742 56.88C205.875 56.4267 205.969 56.0267 206.022 55.68C206.075 55.3333 206.102 55.0267 206.102 54.76C206.102 54.04 205.875 53.5467 205.422 53.28C204.995 52.9867 204.315 52.84 203.382 52.84H202.462V52.44H210.222V52.84H209.462C208.902 52.84 208.435 52.9333 208.062 53.12C207.689 53.3067 207.369 53.6267 207.102 54.08C206.862 54.5333 206.635 55.16 206.422 55.96L199.782 81H197.382L189.462 57.12L183.542 81H181.062L173.142 54.96ZM212.817 81V80.6H213.337C214.057 80.6 214.657 80.4933 215.137 80.28C215.644 80.0667 216.017 79.7467 216.257 79.32C216.497 78.8933 216.617 78.36 216.617 77.72V55.56C216.617 54.9467 216.497 54.44 216.257 54.04C216.017 53.64 215.644 53.3467 215.137 53.16C214.657 52.9467 214.057 52.84 213.337 52.84H212.817V52.44H232.937L233.177 59.44H232.777L232.697 58.12C232.617 56.7867 232.39 55.7333 232.017 54.96C231.644 54.1867 231.057 53.64 230.257 53.32C229.484 53 228.417 52.84 227.057 52.84H220.657V65.84H230.697V66.24H220.657V80.6H228.057C229.497 80.6 230.644 80.44 231.497 80.12C232.35 79.8 232.964 79.2533 233.337 78.48C233.737 77.7067 233.977 76.6533 234.057 75.32L234.137 74H234.537L234.257 81H212.817ZM237.739 81V80.6H238.259C238.979 80.6 239.579 80.4933 240.059 80.28C240.565 80.0667 240.939 79.7467 241.179 79.32C241.419 78.8933 241.539 78.36 241.539 77.72V55.56C241.539 54.9467 241.419 54.44 241.179 54.04C240.939 53.64 240.565 53.3467 240.059 53.16C239.579 52.9467 238.979 52.84 238.259 52.84H237.739V52.44H248.499C250.819 52.44 252.739 52.7333 254.259 53.32C255.779 53.88 256.912 54.72 257.659 55.84C258.405 56.96 258.779 58.32 258.779 59.92C258.779 61.4667 258.459 62.7467 257.819 63.76C257.205 64.7467 256.405 65.52 255.419 66.08C254.459 66.64 253.459 67.0667 252.419 67.36L258.059 76.16C258.619 77.0133 259.099 77.7333 259.499 78.32C259.925 78.88 260.312 79.3333 260.659 79.68C261.005 80 261.325 80.24 261.619 80.4C261.939 80.5333 262.259 80.6 262.579 80.6H262.699V81H262.139C260.885 81 259.845 80.96 259.019 80.88C258.219 80.7733 257.552 80.6 257.019 80.36C256.485 80.12 256.005 79.7733 255.579 79.32C255.179 78.84 254.739 78.2267 254.259 77.48L248.099 67.68H245.579V77.72C245.579 78.36 245.699 78.8933 245.939 79.32C246.179 79.7467 246.539 80.0667 247.019 80.28C247.525 80.4933 248.139 80.6 248.859 80.6H249.379V81H237.739ZM248.379 67.28C249.872 67.28 251.059 67.0533 251.939 66.6C252.845 66.12 253.499 65.36 253.899 64.32C254.299 63.28 254.499 61.9067 254.499 60.2C254.499 58.44 254.285 57.0267 253.859 55.96C253.459 54.8667 252.805 54.08 251.899 53.6C250.992 53.0933 249.792 52.84 248.299 52.84H245.579V67.28H248.379ZM272.789 81.4C271.482 81.4 270.309 81.2667 269.269 81C268.229 80.7067 267.335 80.32 266.589 79.84C265.869 79.3333 265.322 78.7467 264.949 78.08C264.575 77.4133 264.389 76.68 264.389 75.88C264.389 75.2667 264.495 74.76 264.709 74.36C264.949 73.9333 265.282 73.6133 265.709 73.4C266.135 73.1867 266.655 73.08 267.269 73.08C267.295 74.8133 267.509 76.28 267.909 77.48C268.335 78.6533 268.975 79.5333 269.829 80.12C270.682 80.7067 271.762 81 273.069 81C274.775 81 276.149 80.5067 277.189 79.52C278.255 78.5067 278.789 77.0267 278.789 75.08C278.789 73.88 278.562 72.9067 278.109 72.16C277.682 71.4133 276.975 70.7467 275.989 70.16C275.029 69.5467 273.762 68.88 272.189 68.16C271.362 67.76 270.509 67.3333 269.629 66.88C268.775 66.4 267.975 65.84 267.229 65.2C266.509 64.5333 265.922 63.7333 265.469 62.8C265.042 61.84 264.829 60.7067 264.829 59.4C264.829 57.8 265.175 56.4533 265.869 55.36C266.562 54.2667 267.535 53.44 268.789 52.88C270.069 52.32 271.562 52.04 273.269 52.04C274.842 52.04 276.202 52.2533 277.349 52.68C278.522 53.1067 279.429 53.6667 280.069 54.36C280.735 55.0533 281.069 55.8133 281.069 56.64C281.069 57.4133 280.775 58.0267 280.189 58.48C279.602 58.9067 278.842 59.12 277.909 59.12C277.909 57.6533 277.749 56.4267 277.429 55.44C277.135 54.4533 276.642 53.7067 275.949 53.2C275.255 52.6933 274.349 52.44 273.229 52.44C272.215 52.44 271.322 52.6533 270.549 53.08C269.775 53.48 269.175 54.0933 268.749 54.92C268.349 55.72 268.149 56.7333 268.149 57.96C268.149 59.2667 268.389 60.32 268.869 61.12C269.349 61.92 270.069 62.6133 271.029 63.2C272.015 63.76 273.242 64.3867 274.709 65.08C276.042 65.6933 277.269 66.3333 278.389 67C279.535 67.6667 280.455 68.5067 281.149 69.52C281.842 70.5333 282.189 71.8667 282.189 73.52C282.189 75.1467 281.815 76.5467 281.069 77.72C280.349 78.8933 279.282 79.8 277.869 80.44C276.482 81.08 274.789 81.4 272.789 81.4Z" fill="#1F1D36"/>
<path fill-rule="evenodd" clip-rule="evenodd" d="M67.5 91C67.471 82.1743 60.9903 75.0297 53 75.0297C61.0081 75.0297 67.5 67.8528 67.5 59C67.5289 67.8257 74.0097 74.9703 82 74.9703C73.9917 74.9703 67.5 82.1472 67.5 91Z" fill="#E099B6"/>
</svg>
